<svg data-v-423bf9ae="" xmlns="http://www.w3.org/2000/svg" viewBox="0 0 564 90" class="iconLeft"><!----><!----><!----><g data-v-423bf9ae="" id="254b621c-95ea-4996-899e-2f9ef319ed40" fill="#ffffff" transform="matrix(5.434782627474683,0,0,5.434782627474683,143.69565697372073,3.15217279403857)"><path d="M0.28 3.35L8.32 3.35L8.32 5.21L5.39 5.21L5.39 13.05L3.21 13.05L3.21 5.21L0.28 5.21L0.28 3.35ZM12.39 11.59L12.39 11.59L12.39 11.59Q12.70 11.59 12.98 11.58L12.98 11.58L12.98 11.58Q13.26 11.56 13.43 11.54L13.43 11.54L13.43 9.95L13.43 9.95Q13.30 9.93 13.05 9.90L13.05 9.90L13.05 9.90Q12.80 9.87 12.59 9.87L12.59 9.87L12.59 9.87Q12.29 9.87 12.03 9.90L12.03 9.90L12.03 9.90Q11.77 9.94 11.58 10.04L11.58 10.04L11.58 10.04Q11.38 10.14 11.27 10.30L11.27 10.30L11.27 10.30Q11.16 10.47 11.16 10.72L11.16 10.72L11.16 10.72Q11.16 11.21 11.49 11.40L11.49 11.40L11.49 11.40Q11.82 11.59 12.39 11.59ZM12.22 5.49L12.22 5.49L12.22 5.49Q13.15 5.49 13.76 5.70L13.76 5.70L13.76 5.70Q14.38 5.91 14.75 6.30L14.75 6.30L14.75 6.30Q15.12 6.69 15.27 7.25L15.27 7.25L15.27 7.25Q15.43 7.81 15.43 8.50L15.43 8.50L15.43 12.84L15.43 12.84Q14.98 12.94 14.18 13.07L14.18 13.07L14.18 13.07Q13.38 13.20 12.25 13.20L12.25 13.20L12.25 13.20Q11.54 13.20 10.96 13.08L10.96 13.08L10.96 13.08Q10.37 12.95 9.95 12.66L9.95 12.66L9.95 12.66Q9.53 12.38 9.31 11.91L9.31 11.91L9.31 11.91Q9.09 11.45 9.09 10.78L9.09 10.78L9.09 10.78Q9.09 10.14 9.35 9.69L9.35 9.69L9.35 9.69Q9.60 9.24 10.04 8.97L10.04 8.97L10.04 8.97Q10.47 8.71 11.03 8.59L11.03 8.59L11.03 8.59Q11.59 8.47 12.19 8.47L12.19 8.47L12.19 8.47Q12.60 8.47 12.91 8.50L12.91 8.50L12.91 8.50Q13.23 8.54 13.43 8.60L13.43 8.60L13.43 8.40L13.43 8.40Q13.43 7.87 13.10 7.55L13.10 7.55L13.10 7.55Q12.78 7.22 11.98 7.22L11.98 7.22L11.98 7.22Q11.45 7.22 10.93 7.30L10.93 7.30L10.93 7.30Q10.42 7.38 10.04 7.52L10.04 7.52L9.77 5.84L9.77 5.84Q9.95 5.78 10.23 5.72L10.23 5.72L10.23 5.72Q10.50 5.66 10.82 5.61L10.82 5.61L10.82 5.61Q11.14 5.56 11.50 5.52L11.50 5.52L11.50 5.52Q11.86 5.49 12.22 5.49ZM20.55 11.47L20.26 13.19L20.26 13.19Q19.35 13.17 18.78 12.99L18.78 12.99L18.78 12.99Q18.21 12.81 17.89 12.48L17.89 12.48L17.89 12.48Q17.56 12.15 17.44 11.68L17.44 11.68L17.44 11.68Q17.32 11.21 17.32 10.63L17.32 10.63L17.32 2.52L19.40 2.18L19.40 10.21L19.40 10.21Q19.40 10.49 19.45 10.71L19.45 10.71L19.45 10.71Q19.49 10.93 19.61 11.09L19.61 11.09L19.61 11.09Q19.73 11.24 19.95 11.34L19.95 11.34L19.95 11.34Q20.17 11.44 20.55 11.47L20.55 11.47ZM24.56 11.59L24.56 11.59L24.56 11.59Q24.86 11.59 25.14 11.58L25.14 11.58L25.14 11.58Q25.42 11.56 25.59 11.54L25.59 11.54L25.59 9.95L25.59 9.95Q25.47 9.93 25.21 9.90L25.21 9.90L25.21 9.90Q24.96 9.87 24.75 9.87L24.75 9.87L24.75 9.87Q24.46 9.87 24.20 9.90L24.20 9.90L24.20 9.90Q23.94 9.94 23.74 10.04L23.74 10.04L23.74 10.04Q23.55 10.14 23.44 10.30L23.44 10.30L23.44 10.30Q23.32 10.47 23.32 10.72L23.32 10.72L23.32 10.72Q23.32 11.21 23.65 11.40L23.65 11.40L23.65 11.40Q23.98 11.59 24.56 11.59ZM24.39 5.49L24.39 5.49L24.39 5.49Q25.31 5.49 25.93 5.70L25.93 5.70L25.93 5.70Q26.54 5.91 26.91 6.30L26.91 6.30L26.91 6.30Q27.29 6.69 27.44 7.25L27.44 7.25L27.44 7.25Q27.59 7.81 27.59 8.50L27.59 8.50L27.59 12.84L27.59 12.84Q27.15 12.94 26.35 13.07L26.35 13.07L26.35 13.07Q25.55 13.20 24.42 13.20L24.42 13.20L24.42 13.20Q23.70 13.20 23.12 13.08L23.12 13.08L23.12 13.08Q22.54 12.95 22.12 12.66L22.12 12.66L22.12 12.66Q21.70 12.38 21.48 11.91L21.48 11.91L21.48 11.91Q21.25 11.45 21.25 10.78L21.25 10.78L21.25 10.78Q21.25 10.14 21.51 9.69L21.51 9.69L21.51 9.69Q21.77 9.24 22.20 8.97L22.20 8.97L22.20 8.97Q22.64 8.71 23.20 8.59L23.20 8.59L23.20 8.59Q23.76 8.47 24.36 8.47L24.36 8.47L24.36 8.47Q24.77 8.47 25.08 8.50L25.08 8.50L25.08 8.50Q25.40 8.54 25.59 8.60L25.59 8.60L25.59 8.40L25.59 8.40Q25.59 7.87 25.27 7.55L25.27 7.55L25.27 7.55Q24.95 7.22 24.15 7.22L24.15 7.22L24.15 7.22Q23.62 7.22 23.10 7.30L23.10 7.30L23.10 7.30Q22.58 7.38 22.20 7.52L22.20 7.52L21.94 5.84L21.94 5.84Q22.12 5.78 22.39 5.72L22.39 5.72L22.39 5.72Q22.67 5.66 22.99 5.61L22.99 5.61L22.99 5.61Q23.31 5.56 23.67 5.52L23.67 5.52L23.67 5.52Q24.02 5.49 24.39 5.49ZM32.30 11.59L32.30 11.59L32.30 11.59Q32.61 11.59 32.89 11.58L32.89 11.58L32.89 11.58Q33.17 11.56 33.33 11.54L33.33 11.54L33.33 9.95L33.33 9.95Q33.21 9.93 32.96 9.90L32.96 9.90L32.96 9.90Q32.70 9.87 32.49 9.87L32.49 9.87L32.49 9.87Q32.20 9.87 31.94 9.90L31.94 9.90L31.94 9.90Q31.68 9.94 31.49 10.04L31.49 10.04L31.49 10.04Q31.29 10.14 31.18 10.30L31.18 10.30L31.18 10.30Q31.07 10.47 31.07 10.72L31.07 10.72L31.07 10.72Q31.07 11.21 31.40 11.40L31.40 11.40L31.40 11.40Q31.72 11.59 32.30 11.59ZM32.13 5.49L32.13 5.49L32.13 5.49Q33.05 5.49 33.67 5.70L33.67 5.70L33.67 5.70Q34.29 5.91 34.66 6.30L34.66 6.30L34.66 6.30Q35.03 6.69 35.18 7.25L35.18 7.25L35.18 7.25Q35.34 7.81 35.34 8.50L35.34 8.50L35.34 12.84L35.34 12.84Q34.89 12.94 34.09 13.07L34.09 13.07L34.09 13.07Q33.29 13.20 32.16 13.20L32.16 13.20L32.16 13.20Q31.44 13.20 30.86 13.08L30.86 13.08L30.86 13.08Q30.28 12.95 29.86 12.66L29.86 12.66L29.86 12.66Q29.44 12.38 29.22 11.91L29.22 11.91L29.22 11.91Q28.99 11.45 28.99 10.78L28.99 10.78L28.99 10.78Q28.99 10.14 29.25 9.69L29.25 9.69L29.25 9.69Q29.51 9.24 29.95 8.97L29.95 8.97L29.95 8.97Q30.38 8.71 30.94 8.59L30.94 8.59L30.94 8.59Q31.50 8.47 32.10 8.47L32.10 8.47L32.10 8.47Q32.51 8.47 32.82 8.50L32.82 8.50L32.82 8.50Q33.14 8.54 33.33 8.60L33.33 8.60L33.33 8.40L33.33 8.40Q33.33 7.87 33.01 7.55L33.01 7.55L33.01 7.55Q32.69 7.22 31.89 7.22L31.89 7.22L31.89 7.22Q31.36 7.22 30.84 7.30L30.84 7.30L30.84 7.30Q30.32 7.38 29.95 7.52L29.95 7.52L29.68 5.84L29.68 5.84Q29.86 5.78 30.14 5.72L30.14 5.72L30.14 5.72Q30.41 5.66 30.73 5.61L30.73 5.61L30.73 5.61Q31.05 5.56 31.41 5.52L31.41 5.52L31.41 5.52Q31.77 5.49 32.13 5.49ZM37.16 10.04L37.16 3.85L39.24 3.51L39.24 5.68L41.75 5.68L41.75 7.42L39.24 7.42L39.24 10.01L39.24 10.01Q39.24 10.67 39.47 11.06L39.47 11.06L39.47 11.06Q39.70 11.45 40.40 11.45L40.40 11.45L40.40 11.45Q40.74 11.45 41.10 11.39L41.10 11.39L41.10 11.39Q41.45 11.33 41.75 11.21L41.75 11.21L42.04 12.84L42.04 12.84Q41.66 12.99 41.20 13.10L41.20 13.10L41.20 13.10Q40.74 13.22 40.07 13.22L40.07 13.22L40.07 13.22Q39.21 13.22 38.65 12.98L38.65 12.98L38.65 12.98Q38.09 12.75 37.76 12.34L37.76 12.34L37.76 12.34Q37.42 11.93 37.29 11.34L37.29 11.34L37.29 11.34Q37.16 10.75 37.16 10.04L37.16 10.04ZM46.10 3.35L54.14 3.35L54.14 5.21L51.21 5.21L51.21 13.05L49.03 13.05L49.03 5.21L46.10 5.21L46.10 3.35ZM58.21 11.59L58.21 11.59L58.21 11.59Q58.52 11.59 58.80 11.58L58.80 11.58L58.80 11.58Q59.08 11.56 59.25 11.54L59.25 11.54L59.25 9.95L59.25 9.95Q59.12 9.93 58.87 9.90L58.87 9.90L58.87 9.90Q58.62 9.87 58.41 9.87L58.41 9.87L58.41 9.87Q58.11 9.87 57.86 9.90L57.86 9.90L57.86 9.90Q57.60 9.94 57.40 10.04L57.40 10.04L57.40 10.04Q57.20 10.14 57.09 10.30L57.09 10.30L57.09 10.30Q56.98 10.47 56.98 10.72L56.98 10.72L56.98 10.72Q56.98 11.21 57.31 11.40L57.31 11.40L57.31 11.40Q57.64 11.59 58.21 11.59ZM58.04 5.49L58.04 5.49L58.04 5.49Q58.97 5.49 59.58 5.70L59.58 5.70L59.58 5.70Q60.20 5.91 60.57 6.30L60.57 6.30L60.57 6.30Q60.94 6.69 61.10 7.25L61.10 7.25L61.10 7.25Q61.25 7.81 61.25 8.50L61.25 8.50L61.25 12.84L61.25 12.84Q60.80 12.94 60.00 13.07L60.00 13.07L60.00 13.07Q59.21 13.20 58.07 13.20L58.07 13.20L58.07 13.20Q57.36 13.20 56.78 13.08L56.78 13.08L56.78 13.08Q56.20 12.95 55.78 12.66L55.78 12.66L55.78 12.66Q55.36 12.38 55.13 11.91L55.13 11.91L55.13 11.91Q54.91 11.45 54.91 10.78L54.91 10.78L54.91 10.78Q54.91 10.14 55.17 9.69L55.17 9.69L55.17 9.69Q55.43 9.24 55.86 8.97L55.86 8.97L55.86 8.97Q56.29 8.71 56.85 8.59L56.85 8.59L56.85 8.59Q57.41 8.47 58.02 8.47L58.02 8.47L58.02 8.47Q58.42 8.47 58.74 8.50L58.74 8.50L58.74 8.50Q59.05 8.54 59.25 8.60L59.25 8.60L59.25 8.40L59.25 8.40Q59.25 7.87 58.93 7.55L58.93 7.55L58.93 7.55Q58.60 7.22 57.81 7.22L57.81 7.22L57.81 7.22Q57.27 7.22 56.76 7.30L56.76 7.30L56.76 7.30Q56.24 7.38 55.86 7.52L55.86 7.52L55.59 5.84L55.59 5.84Q55.78 5.78 56.05 5.72L56.05 5.72L56.05 5.72Q56.32 5.66 56.64 5.61L56.64 5.61L56.64 5.61Q56.97 5.56 57.32 5.52L57.32 5.52L57.32 5.52Q57.68 5.49 58.04 5.49ZM65.23 13.05L63.14 13.05L63.14 2.52L65.23 2.18L65.23 5.71L65.23 5.71Q65.44 5.64 65.77 5.58L65.77 5.58L65.77 5.58Q66.09 5.52 66.40 5.52L66.40 5.52L66.40 5.52Q67.30 5.52 67.89 5.76L67.89 5.76L67.89 5.76Q68.49 6.01 68.84 6.45L68.84 6.45L68.84 6.45Q69.20 6.90 69.35 7.52L69.35 7.52L69.35 7.52Q69.50 8.13 69.50 8.89L69.50 8.89L69.50 13.05L67.41 13.05L67.41 9.14L67.41 9.14Q67.41 8.13 67.15 7.71L67.15 7.71L67.15 7.71Q66.89 7.29 66.19 7.29L66.19 7.29L66.19 7.29Q65.91 7.29 65.67 7.34L65.67 7.34L65.67 7.34Q65.42 7.39 65.23 7.45L65.23 7.45L65.23 13.05ZM74.20 11.59L74.20 11.59L74.20 11.59Q74.51 11.59 74.79 11.58L74.79 11.58L74.79 11.58Q75.07 11.56 75.24 11.54L75.24 11.54L75.24 9.95L75.24 9.95Q75.11 9.93 74.86 9.90L74.86 9.90L74.86 9.90Q74.61 9.87 74.40 9.87L74.40 9.87L74.40 9.87Q74.10 9.87 73.84 9.90L73.84 9.90L73.84 9.90Q73.58 9.94 73.39 10.04L73.39 10.04L73.39 10.04Q73.19 10.14 73.08 10.30L73.08 10.30L73.08 10.30Q72.97 10.47 72.97 10.72L72.97 10.72L72.97 10.72Q72.97 11.21 73.30 11.40L73.30 11.40L73.30 11.40Q73.63 11.59 74.20 11.59ZM74.03 5.49L74.03 5.49L74.03 5.49Q74.96 5.49 75.57 5.70L75.57 5.70L75.57 5.70Q76.19 5.91 76.56 6.30L76.56 6.30L76.56 6.30Q76.93 6.69 77.08 7.25L77.08 7.25L77.08 7.25Q77.24 7.81 77.24 8.50L77.24 8.50L77.24 12.84L77.24 12.84Q76.79 12.94 75.99 13.07L75.99 13.07L75.99 13.07Q75.19 13.20 74.06 13.20L74.06 13.20L74.06 13.20Q73.35 13.20 72.77 13.08L72.77 13.08L72.77 13.08Q72.18 12.95 71.76 12.66L71.76 12.66L71.76 12.66Q71.34 12.38 71.12 11.91L71.12 11.91L71.12 11.91Q70.90 11.45 70.90 10.78L70.90 10.78L70.90 10.78Q70.90 10.14 71.16 9.69L71.16 9.69L71.16 9.69Q71.41 9.24 71.85 8.97L71.85 8.97L71.85 8.97Q72.28 8.71 72.84 8.59L72.84 8.59L72.84 8.59Q73.40 8.47 74.00 8.47L74.00 8.47L74.00 8.47Q74.41 8.47 74.73 8.50L74.73 8.50L74.73 8.50Q75.04 8.54 75.24 8.60L75.24 8.60L75.24 8.40L75.24 8.40Q75.24 7.87 74.91 7.55L74.91 7.55L74.91 7.55Q74.59 7.22 73.79 7.22L73.79 7.22L73.79 7.22Q73.26 7.22 72.74 7.30L72.74 7.30L72.74 7.30Q72.23 7.38 71.85 7.52L71.85 7.52L71.58 5.84L71.58 5.84Q71.76 5.78 72.04 5.72L72.04 5.72L72.04 5.72Q72.31 5.66 72.63 5.61L72.63 5.61L72.63 5.61Q72.95 5.56 73.31 5.52L73.31 5.52L73.31 5.52Q73.67 5.49 74.03 5.49Z"></path></g><!----><g data-v-423bf9ae="" id="60476218-d61e-4ec3-b2f1-55bfc5eafdeb" transform="matrix(3.9130434782608696,0,0,3.9130434782608696,0.39130486871884784,-15.652173913043477)" stroke="none" fill="#ffffff"><path d="M17.063 4l-.031.156-5 22-.188.844h3.094l.031-.156 5-22L20.157 4h-3.094zM10 7l-.406.313-9 7-.594.469v1.438l.594.469 9 7 .406.313v-3.781l-6.063-4.719L10 10.783V7.002zm12 0v3.781l6.063 4.719L22 20.219V24l.406-.313 9-7 .594-.469V14.78l-.594-.469-9-7L22 6.998z"></path></g><!----></svg>